<svg width="1415" height="340" viewBox="0 0 1415 340" fill="none" xmlns="http://www.w3.org/2000/svg">
<g clip-path="url(#clip0_108_2)">
<rect width="340" height="340" rx="170" fill="black"/>
<g filter="url(#filter0_f_108_2)">
<rect width="340" height="340" fill="#AFAFAF"/>
</g>
<path d="M138.184 226V134H104.584V114H193.544V134H160.104V226H138.184ZM206.181 226V146H227.301V226H206.181ZM216.741 133.04C213.541 133.04 210.715 131.867 208.261 129.52C205.808 127.067 204.581 124.187 204.581 120.88C204.581 117.573 205.808 114.747 208.261 112.4C210.715 109.947 213.541 108.72 216.741 108.72C220.048 108.72 222.875 109.947 225.221 112.4C227.675 114.747 228.901 117.573 228.901 120.88C228.901 124.187 227.675 127.067 225.221 129.52C222.875 131.867 220.048 133.04 216.741 133.04Z" fill="url(#paint0_linear_108_2)"/>
</g>
<rect x="10" y="10" width="320" height="320" rx="160" stroke="white" stroke-opacity="0.5" stroke-width="20"/>
<path d="M437.344 260V112.8H383.584V80.8H525.92V112.8H472.416V260H437.344ZM546.14 260V132H579.932V260H546.14ZM563.036 111.264C557.916 111.264 553.393 109.387 549.468 105.632C545.543 101.707 543.58 97.0987 543.58 91.808C543.58 86.5173 545.543 81.9947 549.468 78.24C553.393 74.3147 557.916 72.352 563.036 72.352C568.327 72.352 572.849 74.3147 576.604 78.24C580.529 81.9947 582.492 86.5173 582.492 91.808C582.492 97.0987 580.529 101.707 576.604 105.632C572.849 109.387 568.327 111.264 563.036 111.264ZM663.828 263.072C649.663 263.072 638.911 259.573 631.572 252.576C624.404 245.579 620.82 235.595 620.82 222.624V92.064H654.612V215.2C654.612 220.661 655.807 224.843 658.196 227.744C660.585 230.475 664.084 231.84 668.692 231.84C670.399 231.84 672.276 231.499 674.324 230.816C676.372 229.963 678.505 228.768 680.724 227.232L692.5 252.576C688.404 255.648 683.796 258.123 678.676 260C673.727 262.048 668.777 263.072 663.828 263.072ZM600.084 160.672V132H686.612V160.672H600.084ZM789.154 260L788.13 234.144V195.232C788.13 187.552 787.277 180.981 785.57 175.52C784.034 170.059 781.474 165.877 777.89 162.976C774.477 159.904 769.783 158.368 763.81 158.368C758.349 158.368 753.399 159.563 748.962 161.952C744.525 164.341 740.77 168.011 737.698 172.96L708.002 162.72C710.391 157.259 713.89 151.968 718.498 146.848C723.106 141.557 729.079 137.291 736.418 134.048C743.927 130.635 753.058 128.928 763.81 128.928C776.781 128.928 787.533 131.403 796.066 136.352C804.77 141.301 811.17 148.299 815.266 157.344C819.533 166.219 821.581 176.8 821.41 189.088L820.642 260H789.154ZM753.314 263.072C737.954 263.072 726.007 259.659 717.474 252.832C709.111 246.005 704.93 236.363 704.93 223.904C704.93 210.251 709.453 200.011 718.498 193.184C727.714 186.187 740.599 182.688 757.154 182.688H789.666V207.776H768.93C757.837 207.776 750.157 209.141 745.89 211.872C741.623 214.432 739.49 218.101 739.49 222.88C739.49 226.635 741.197 229.621 744.61 231.84C748.023 233.888 752.802 234.912 758.946 234.912C764.578 234.912 769.527 233.632 773.794 231.072C778.231 228.341 781.73 224.928 784.29 220.832C786.85 216.565 788.13 212.213 788.13 207.776H796.322C796.322 225.184 792.994 238.752 786.338 248.48C779.853 258.208 768.845 263.072 753.314 263.072ZM848.342 260V132H880.086L882.134 155.552V260H848.342ZM933.078 260V194.464H966.87V260H933.078ZM933.078 194.464C933.078 185.76 932.054 179.019 930.006 174.24C928.129 169.461 925.398 166.048 921.814 164C918.23 161.781 914.049 160.672 909.27 160.672C900.566 160.501 893.825 163.147 889.046 168.608C884.438 174.069 882.134 182.176 882.134 192.928H870.87C870.87 179.275 872.833 167.755 876.758 158.368C880.854 148.811 886.486 141.557 893.654 136.608C900.993 131.488 909.526 128.928 919.254 128.928C929.323 128.928 937.942 130.976 945.11 135.072C952.278 139.168 957.739 145.568 961.494 154.272C965.249 162.805 967.041 173.899 966.87 187.552V194.464H933.078ZM995.89 260V132H1029.68V260H995.89ZM1012.79 111.264C1007.67 111.264 1003.14 109.387 999.218 105.632C995.293 101.707 993.33 97.0987 993.33 91.808C993.33 86.5173 995.293 81.9947 999.218 78.24C1003.14 74.3147 1007.67 72.352 1012.79 72.352C1018.08 72.352 1022.6 74.3147 1026.35 78.24C1030.28 81.9947 1032.24 86.5173 1032.24 91.808C1032.24 97.0987 1030.28 101.707 1026.35 105.632C1022.6 109.387 1018.08 111.264 1012.79 111.264ZM1145.32 260L1143.27 236.448V132H1177.07V260H1145.32ZM1058.54 197.536V132H1092.33V197.536H1058.54ZM1092.33 197.536C1092.33 206.069 1093.27 212.811 1095.15 217.76C1097.19 222.539 1100.01 226.037 1103.59 228.256C1107.35 230.304 1111.53 231.328 1116.14 231.328C1125.01 231.499 1131.75 228.853 1136.36 223.392C1140.97 217.76 1143.27 209.653 1143.27 199.072H1154.79C1154.79 212.725 1152.75 224.331 1148.65 233.888C1144.55 243.275 1138.92 250.528 1131.75 255.648C1124.59 260.597 1116.14 263.072 1106.41 263.072C1096.17 263.072 1087.47 261.024 1080.3 256.928C1073.13 252.832 1067.67 246.517 1063.91 237.984C1060.33 229.28 1058.54 218.101 1058.54 204.448V197.536H1092.33ZM1206.34 260V132H1238.09L1239.62 148.64C1243.55 142.155 1248.58 137.291 1254.73 134.048C1260.87 130.635 1267.7 128.928 1275.21 128.928C1285.62 128.928 1294.32 131.147 1301.32 135.584C1308.49 140.021 1313.69 146.848 1316.93 156.064C1320.69 147.36 1325.98 140.704 1332.81 136.096C1339.63 131.317 1347.57 128.928 1356.61 128.928C1371.63 128.928 1383.07 133.707 1390.92 143.264C1398.77 152.651 1402.69 167.157 1402.69 186.784V260H1368.9V194.464C1368.9 185.76 1367.96 179.019 1366.09 174.24C1364.21 169.461 1361.65 166.048 1358.41 164C1355.16 161.781 1351.32 160.672 1346.89 160.672C1338.69 160.501 1332.38 163.147 1327.94 168.608C1323.5 174.069 1321.29 182.176 1321.29 192.928V260H1287.49V194.464C1287.49 185.76 1286.56 179.019 1284.68 174.24C1282.97 169.461 1280.41 166.048 1277 164C1273.76 161.781 1269.92 160.672 1265.48 160.672C1257.29 160.501 1250.97 163.147 1246.53 168.608C1242.27 174.069 1240.13 182.176 1240.13 192.928V260H1206.34Z" fill="url(#paint1_linear_108_2)"/>
<defs>
<filter id="filter0_f_108_2" x="-207.5" y="-207.5" width="755" height="755" filterUnits="userSpaceOnUse" color-interpolation-filters="sRGB">
<feFlood flood-opacity="0" result="BackgroundImageFix"/>
<feBlend mode="normal" in="SourceGraphic" in2="BackgroundImageFix" result="shape"/>
<feGaussianBlur stdDeviation="103.75" result="effect1_foregroundBlur_108_2"/>
</filter>
<linearGradient id="paint0_linear_108_2" x1="170" y1="102.93" x2="170" y2="229.766" gradientUnits="userSpaceOnUse">
<stop stop-color="#131313"/>
<stop offset="1" stop-color="#686868"/>
</linearGradient>
<linearGradient id="paint1_linear_108_2" x1="897.5" y1="102.93" x2="897.5" y2="229.766" gradientUnits="userSpaceOnUse">
<stop stop-color="#ECECEC"/>
<stop offset="1" stop-color="#979797"/>
</linearGradient>
<clipPath id="clip0_108_2">
<rect width="340" height="340" rx="170" fill="white"/>
</clipPath>
</defs>
</svg>
